<svg width="15" height="14" viewBox="0 0 15 14" fill="none" xmlns="http://www.w3.org/2000/svg">
  <path fill-rule="evenodd" clip-rule="evenodd"
    d="M9.82397 0.334387C10.7728 0.613572 11.6536 1.08588 12.4112 1.72167C13.3158 2.46114 13.9752 3.45726 14.3026 4.57883C14.4342 5.04479 14.5006 5.52673 14.5 6.01091C14.4916 7.10204 14.1497 8.16449 13.52 9.05566C13.234 9.44911 12.9095 9.81301 12.5512 10.142C11.522 11.1374 10.4179 12.0523 9.24856 12.8787C8.72179 13.274 8.15494 13.6127 7.55735 13.8895C7.42251 13.9434 7.28139 13.9801 7.13735 13.9987C7.11299 14.0018 7.08826 13.9998 7.0647 13.9929C7.04114 13.986 7.01927 13.9743 7.00046 13.9585C6.98165 13.9427 6.96631 13.9232 6.95542 13.9012C6.94452 13.8792 6.9383 13.8552 6.93715 13.8307C6.91239 13.6574 6.9219 13.4809 6.96515 13.3113C6.97394 13.2397 6.98507 13.1681 6.99621 13.0964C7.02056 12.9397 7.04495 12.7829 7.04495 12.6254C7.05542 12.5386 7.04798 12.4507 7.02308 12.3669C6.99817 12.2832 6.95634 12.2054 6.90017 12.1385C6.84399 12.0716 6.77468 12.0169 6.69651 11.9778C6.61835 11.9388 6.533 11.9162 6.44574 11.9114C4.96873 11.7422 3.57836 11.1269 2.45992 10.1476C1.56603 9.38717 0.934577 8.3644 0.655306 7.22461C0.484669 6.54573 0.454268 5.83918 0.565959 5.14815C0.677651 4.45712 0.92909 3.79612 1.30491 3.20555C1.88617 2.27116 2.70059 1.50408 3.66813 0.979733C4.38739 0.570714 5.17085 0.286706 5.98514 0.139803C6.36933 0.0760095 6.75682 0.0339462 7.14575 0.0138134C7.44226 -0.00460448 7.73964 -0.00460448 8.03615 0.0138134C8.64268 0.0494956 9.24283 0.157108 9.82397 0.334387ZM6.5383 5.7769H5.1397C4.44536 5.7769 4.13932 5.18311 4.13932 4.57648H5.93223V3.74961L5.00003 2.97299C4.89151 2.8824 4.87679 2.72073 4.96738 2.61221C5.05798 2.50338 5.21932 2.48897 5.32816 2.57924L6.35255 3.43301C6.41081 3.48167 6.44442 3.5537 6.44442 3.62988V4.57648H6.87093V4.32868C6.87093 4.06518 7.06005 3.90079 7.29753 3.83434V2.7761C7.29753 2.63461 7.41213 2.52001 7.55362 2.52001C7.69512 2.52001 7.80972 2.63461 7.80972 2.7761V3.83565C8.04732 3.9032 8.23656 4.06794 8.23656 4.32868V4.57648H8.66395V3.62988C8.66395 3.55369 8.69757 3.48166 8.75615 3.43301L9.78054 2.57924C9.88906 2.48897 10.0504 2.50338 10.141 2.61222C10.2316 2.72074 10.2169 2.88241 10.1083 2.97299L9.17615 3.74961V4.57648H10.9683C10.9683 5.18308 10.6623 5.7769 9.96791 5.7769H8.57951L10.2001 6.91117V8.13339L10.4664 8.40005C10.5663 8.49993 10.5663 8.66222 10.4664 8.76211C10.3665 8.86199 10.2042 8.86199 10.1043 8.76211L9.68786 8.34563V7.17783L9.17615 6.81965V8.47494L9.78406 9.08285C9.88394 9.18274 9.88394 9.34503 9.78406 9.44491C9.68386 9.54512 9.52188 9.54512 9.42168 9.44491L8.66395 8.68719V6.53212C8.66395 6.50961 8.66685 6.48777 8.6723 6.46698L8.23656 6.16198V6.19086V7.6055C8.23656 7.95507 7.93021 8.23966 7.55375 8.23966C7.17729 8.23966 6.87093 7.95507 6.87093 7.6055V6.19086V6.1692L6.44567 6.46687C6.45114 6.4877 6.45405 6.50957 6.45405 6.53212V8.68719L5.69632 9.44491C5.59612 9.54512 5.43414 9.54512 5.33394 9.44491C5.23406 9.34503 5.23406 9.18274 5.33394 9.08285L5.94185 8.47494V6.81952L5.43003 7.17777V8.34557L5.01355 8.76205C4.91367 8.86193 4.75138 8.86193 4.65149 8.76205C4.55161 8.66217 4.55161 8.49987 4.65149 8.39999L4.91783 8.13333V6.91111L6.5383 5.7769Z"
    fill="#005B00" />
</svg>
  