<svg width="60" height="60" viewBox="0 0 60 60" fill="none" xmlns="http://www.w3.org/2000/svg">
  <g filter="url(#filter0_d_441_1160)">
    <rect x="2" y="1" width="56" height="56" rx="12" fill="white" />
    <rect x="2.5" y="1.5" width="55" height="55" rx="11.5" stroke="#EAECF0" />
    <path
      d="M26.0334 41.25L23.8167 37.5167L19.6167 36.5833L20.0251 32.2667L17.1667 29L20.0251 25.7333L19.6167 21.4167L23.8167 20.4833L26.0334 16.75L30.0001 18.4417L33.9667 16.75L36.1834 20.4833L40.3834 21.4167L39.9751 25.7333L42.8334 29L39.9751 32.2667L40.3834 36.5833L36.1834 37.5167L33.9667 41.25L30.0001 39.5583L26.0334 41.25ZM27.0251 38.275L30.0001 36.9917L33.0334 38.275L34.6667 35.475L37.8751 34.7167L37.5834 31.45L39.7417 29L37.5834 26.4917L37.8751 23.225L34.6667 22.525L32.9751 19.725L30.0001 21.0083L26.9667 19.725L25.3334 22.525L22.1251 23.225L22.4167 26.4917L20.2584 29L22.4167 31.45L22.1251 34.775L25.3334 35.475L27.0251 38.275ZM28.7751 33.1417L35.3667 26.55L33.7334 24.8583L28.7751 29.8167L26.2667 27.3667L24.6334 29L28.7751 33.1417Z"
      fill="#067507" />
  </g>
  <defs>
    <filter id="filter0_d_441_1160" x="0" y="0" width="60" height="60" filterUnits="userSpaceOnUse"
      color-interpolation-filters="sRGB">
      <feFlood flood-opacity="0" result="BackgroundImageFix" />
      <feColorMatrix in="SourceAlpha" type="matrix"
        values="0 0 0 0 0 0 0 0 0 0 0 0 0 0 0 0 0 0 127 0" result="hardAlpha" />
      <feOffset dy="1" />
      <feGaussianBlur stdDeviation="1" />
      <feColorMatrix type="matrix"
        values="0 0 0 0 0.0627451 0 0 0 0 0.0941176 0 0 0 0 0.156863 0 0 0 0.05 0" />
      <feBlend mode="normal" in2="BackgroundImageFix" result="effect1_dropShadow_441_1160" />
      <feBlend mode="normal" in="SourceGraphic" in2="effect1_dropShadow_441_1160" result="shape" />
    </filter>
  </defs>
</svg>
  