<svg width="48" height="48" viewBox="0 0 48 48" fill="none" xmlns="http://www.w3.org/2000/svg">
  <rect x="0.15" y="0.15" width="47.7" height="47.7" rx="11.85" fill="#067507" />
  <rect x="0.15" y="0.15" width="47.7" height="47.7" rx="11.85" stroke="#D0D5DD" stroke-width="0.3" />
  <path fill-rule="evenodd" clip-rule="evenodd"
    d="M28.7806 10.2879C30.7324 10.8622 32.5444 11.8338 34.1028 13.1417C35.9638 14.6629 37.3203 16.712 37.9937 19.0192C38.2644 19.9778 38.4011 20.9692 38.3998 21.9652C38.3826 24.2098 37.6791 26.3954 36.3838 28.2286C35.7955 29.038 35.1279 29.7866 34.3908 30.4633C32.2736 32.511 30.0023 34.3932 27.5969 36.0932C26.5133 36.9062 25.3472 37.6031 24.1179 38.1724C23.8405 38.2833 23.5502 38.3588 23.2539 38.397C23.2038 38.4034 23.1529 38.3994 23.1044 38.3852C23.0559 38.371 23.011 38.3469 22.9723 38.3144C22.9336 38.2819 22.902 38.2418 22.8796 38.1966C22.8572 38.1513 22.8444 38.1019 22.842 38.0514C22.7911 37.695 22.8107 37.332 22.8996 36.9831C22.9177 36.8357 22.9406 36.6884 22.9635 36.5409C23.0136 36.2187 23.0638 35.896 23.0638 35.572C23.0853 35.3935 23.07 35.2126 23.0188 35.0403C22.9676 34.868 22.8815 34.7081 22.7659 34.5704C22.6504 34.4327 22.5078 34.3202 22.347 34.2399C22.1862 34.1595 22.0106 34.1131 21.8311 34.1033C18.7927 33.7552 15.9326 32.4895 13.6318 30.4748C11.7929 28.9106 10.494 26.8066 9.91946 24.4619C9.56844 23.0654 9.5059 21.6119 9.73566 20.1904C9.96543 18.7689 10.4827 17.4091 11.2558 16.1942C12.4515 14.272 14.1269 12.6941 16.1172 11.6154C17.5968 10.774 19.2085 10.1898 20.8836 9.88757C21.674 9.75634 22.4711 9.66981 23.2711 9.62839C23.8811 9.5905 24.4928 9.5905 25.1028 9.62839C26.3505 9.70179 27.5851 9.92317 28.7806 10.2879ZM22.0224 21.4839H19.1459C17.7175 21.4839 17.088 20.2624 17.088 19.0145H20.7758V17.3134L18.8582 15.7158C18.6349 15.5295 18.6046 15.1969 18.791 14.9737C18.9774 14.7498 19.3093 14.7201 19.5331 14.9058L21.6404 16.6622C21.7603 16.7623 21.8294 16.9104 21.8294 17.0671V19.0145H22.708V18.5047C22.708 17.9626 23.0971 17.6244 23.5857 17.4877V15.3109C23.5857 15.0198 23.8214 14.784 24.1125 14.784C24.4036 14.784 24.6393 15.0198 24.6393 15.3109V17.4905C25.128 17.6295 25.5173 17.9683 25.5173 18.5047V19.0145H26.3955V17.0671C26.3955 16.9104 26.4646 16.7622 26.5851 16.6622L28.6924 14.9059C28.9157 14.7201 29.2476 14.7498 29.4339 14.9737C29.6203 15.1969 29.59 15.5295 29.3668 15.7158L27.4491 17.3134V19.0145H31.137C31.137 20.2623 30.5075 21.4839 29.0791 21.4839H26.2229L29.5565 23.8172V26.3314L30.1044 26.88C30.3099 27.0855 30.3099 27.4193 30.1044 27.6248C29.899 27.8303 29.5651 27.8303 29.3596 27.6248L28.5029 26.768V24.3657L27.4494 23.6283V27.034L28.6999 28.2846C28.9054 28.4901 28.9054 28.8239 28.6999 29.0294C28.4938 29.2355 28.1606 29.2355 27.9544 29.0294L26.3957 27.4707V23.0374C26.3957 22.9909 26.4017 22.9458 26.413 22.9029L25.5173 22.2759V22.3354V25.2455C25.5173 25.9646 24.8871 26.5501 24.1126 26.5501C23.3382 26.5501 22.708 25.9646 22.708 25.2455V22.3354V22.29L21.8323 22.9029C21.8436 22.9458 21.8496 22.9909 21.8496 23.0374V27.4707L20.2909 29.0294C20.0847 29.2355 19.7515 29.2355 19.5454 29.0294C19.3399 28.8239 19.3399 28.4901 19.5454 28.2846L20.7959 27.034V23.6283L19.7424 24.3657V26.7681L18.8857 27.6248C18.6802 27.8303 18.3463 27.8303 18.1409 27.6248C17.9354 27.4193 17.9354 27.0855 18.1409 26.88L18.6888 26.3314V23.8172L22.0224 21.4839Z"
    fill="#FCC914" />
</svg>
  