<svg width="161" height="32" viewBox="0 0 161 32" fill="none" xmlns="http://www.w3.org/2000/svg">
  <path fill-rule="evenodd" clip-rule="evenodd"
    d="M21.3118 0.764308C23.4805 1.40244 25.4938 2.48201 27.2254 3.93522C29.2931 5.62543 30.8004 7.90227 31.5486 10.4658C31.8494 11.5309 32.0012 12.6324 31.9998 13.7391C31.9807 16.2331 31.199 18.6616 29.7598 20.6985C29.1061 21.5978 28.3643 22.4296 27.5454 23.1815C25.1929 25.4567 22.6692 27.548 19.9966 29.4369C18.7925 30.3403 17.4969 31.1146 16.131 31.7471C15.8228 31.8704 15.5002 31.9543 15.171 31.9967C15.1153 32.0038 15.0588 31.9994 15.0049 31.9836C14.9511 31.9678 14.9011 31.941 14.8581 31.9049C14.8151 31.8688 14.7801 31.8243 14.7551 31.774C14.7302 31.7237 14.716 31.6688 14.7134 31.6127C14.6568 31.2167 14.6785 30.8133 14.7774 30.4256C14.7975 30.262 14.8229 30.0983 14.8484 29.9346L14.8484 29.9345L14.8484 29.9345L14.8484 29.9345L14.8484 29.9345L14.8484 29.9345L14.8484 29.9345L14.8484 29.9344L14.8484 29.9344L14.8484 29.9344L14.8484 29.9344C14.9041 29.5763 14.9598 29.2178 14.9598 28.8578C14.9837 28.6595 14.9667 28.4584 14.9098 28.267C14.8529 28.0756 14.7572 27.8979 14.6289 27.7449C14.5005 27.5919 14.342 27.4669 14.1634 27.3777C13.9847 27.2884 13.7896 27.2368 13.5902 27.2259C10.2142 26.8392 7.0362 25.4328 4.47978 23.1943C2.43662 21.4563 0.993312 19.1185 0.354983 16.5133C-0.0350417 14.9616 -0.104531 13.3466 0.150763 11.7671C0.406056 10.1876 0.98077 8.6768 1.83978 7.32692C3.16837 5.19118 5.0299 3.43789 7.24138 2.23938C8.8854 1.30448 10.6761 0.655323 12.5374 0.319548C13.4155 0.173735 14.3012 0.0775907 15.1902 0.0315733C15.8679 -0.0105244 16.5476 -0.0105244 17.2254 0.0315733C18.6117 0.113132 19.9835 0.359101 21.3118 0.764308ZM13.8027 13.2043H10.6066C9.01952 13.2043 8.32001 11.8471 8.32001 10.4605H12.4176V8.5705L10.2869 6.79538C10.0389 6.58831 10.0052 6.2188 10.2123 5.97075C10.4193 5.72198 10.7881 5.68905 11.0369 5.89539L13.3783 7.84684C13.5115 7.95806 13.5883 8.1227 13.5883 8.29683V10.4605H14.5645V9.8941C14.5645 9.29174 14.9968 8.91599 15.5397 8.76414V6.34542C15.5397 6.022 15.8016 5.76005 16.1251 5.76005C16.4485 5.76005 16.7104 6.022 16.7104 6.34542V8.7672C17.2534 8.92164 17.6859 9.29817 17.6859 9.8941V10.4605H18.6617V8.29683C18.6617 8.12269 18.7385 7.95805 18.8724 7.84685L21.2139 5.89539C21.4619 5.68905 21.8307 5.72199 22.0378 5.97077C22.2449 6.21881 22.2112 6.58833 21.9631 6.79539L19.8324 8.5705V10.4605H23.93C23.93 11.847 23.2305 13.2043 21.6435 13.2043H18.47L22.174 15.7968V18.5905L22.7827 19.2C23.011 19.4283 23.011 19.7992 22.7827 20.0275C22.5544 20.2558 22.1835 20.2558 21.9552 20.0275L21.0032 19.0756V16.4063L19.8327 15.587V19.3712L21.2222 20.7607C21.4505 20.989 21.4505 21.3599 21.2222 21.5882C20.9931 21.8173 20.6229 21.8173 20.3939 21.5882L18.6619 19.8563V14.9305C18.6619 14.8788 18.6686 14.8287 18.6812 14.781L17.6859 14.0843V14.1505V17.3839C17.6859 18.1829 16.9857 18.8334 16.1252 18.8334C15.2647 18.8334 14.5645 18.1829 14.5645 17.3839V14.1505V14.0999L13.5915 14.781C13.604 14.8287 13.6107 14.8788 13.6107 14.9305V19.8563L11.8788 21.5882C11.6497 21.8173 11.2795 21.8173 11.0505 21.5882C10.8222 21.3599 10.8222 20.989 11.0505 20.7607L12.44 19.3712V15.587L11.2694 16.4064V19.0756L10.3174 20.0276C10.0891 20.2559 9.71818 20.2559 9.48988 20.0276C9.26158 19.7993 9.26158 19.4283 9.48988 19.2L10.0987 18.5905V15.7969L13.8027 13.2043Z"
    fill="#067507" />
  <path
    d="M150.984 15.8774C150.657 15.8774 150.385 15.7685 150.167 15.5506C149.949 15.3328 149.84 15.0604 149.84 14.7336C149.84 14.4068 149.949 14.1413 150.167 13.937C150.385 13.7328 150.657 13.6306 150.984 13.6306H159.297C159.624 13.6306 159.896 13.7396 160.114 13.9574C160.332 14.1617 160.441 14.4272 160.441 14.754C160.441 15.0808 160.332 15.3532 160.114 15.5711C159.896 15.7753 159.624 15.8774 159.297 15.8774H150.984ZM155.11 19.8604C154.729 19.8604 154.409 19.7378 154.15 19.4927C153.905 19.2476 153.782 18.9344 153.782 18.5532V10.5873C153.782 10.206 153.912 9.89279 154.17 9.64769C154.429 9.40258 154.749 9.28003 155.13 9.28003C155.525 9.28003 155.838 9.40258 156.07 9.64769C156.315 9.89279 156.437 10.206 156.437 10.5873V18.5532C156.437 18.9344 156.315 19.2476 156.07 19.4927C155.825 19.7378 155.505 19.8604 155.11 19.8604Z"
    fill="#067507" />
  <path
    d="M143.137 10.7915H147.978C148.304 10.7915 148.577 10.9005 148.795 11.1183C149.013 11.3362 149.122 11.6085 149.122 11.9354C149.122 12.2485 149.013 12.5141 148.795 12.7319C148.577 12.9362 148.304 13.0383 147.978 13.0383H143.137C142.81 13.0383 142.538 12.9294 142.32 12.7115C142.102 12.4937 141.993 12.2213 141.993 11.8945C141.993 11.5813 142.102 11.3226 142.32 11.1183C142.538 10.9005 142.81 10.7915 143.137 10.7915ZM145.322 8.23836C145.676 8.23836 145.962 8.36091 146.18 8.60601C146.412 8.8375 146.527 9.13027 146.527 9.48431V18.5736C146.527 18.7642 146.562 18.9208 146.63 19.0434C146.711 19.1659 146.813 19.2545 146.936 19.3089C147.072 19.3634 147.215 19.3906 147.365 19.3906C147.528 19.3906 147.678 19.3634 147.814 19.3089C147.95 19.2408 148.107 19.2068 148.284 19.2068C148.475 19.2068 148.645 19.2953 148.795 19.4723C148.958 19.6494 149.04 19.8945 149.04 20.2076C149.04 20.5889 148.829 20.9021 148.407 21.1472C147.998 21.3923 147.556 21.5149 147.079 21.5149C146.793 21.5149 146.473 21.4944 146.119 21.4536C145.779 21.3991 145.452 21.2834 145.139 21.1064C144.839 20.9157 144.587 20.6298 144.383 20.2485C144.179 19.8672 144.076 19.343 144.076 18.6757V9.48431C144.076 9.13027 144.192 8.8375 144.424 8.60601C144.669 8.36091 144.968 8.23836 145.322 8.23836Z"
    fill="#067507" />
  <path
    d="M140.156 10.383C140.51 10.383 140.803 10.4987 141.035 10.7302C141.266 10.9617 141.382 11.2613 141.382 11.6289V20.2689C141.382 20.6229 141.266 20.9225 141.035 21.1676C140.803 21.3991 140.51 21.5148 140.156 21.5148C139.802 21.5148 139.509 21.3991 139.278 21.1676C139.046 20.9225 138.931 20.6229 138.931 20.2689V19.268L139.38 19.4519C139.38 19.6289 139.285 19.8468 139.094 20.1055C138.903 20.3506 138.645 20.5957 138.318 20.8408C137.991 21.0859 137.603 21.297 137.154 21.474C136.718 21.6374 136.241 21.7191 135.724 21.7191C134.784 21.7191 133.933 21.4808 133.171 21.0042C132.408 20.514 131.802 19.8468 131.353 19.0025C130.917 18.1446 130.699 17.1642 130.699 16.0613C130.699 14.9447 130.917 13.9642 131.353 13.12C131.802 12.2621 132.401 11.5949 133.15 11.1183C133.899 10.6281 134.73 10.383 135.642 10.383C136.228 10.383 136.766 10.4715 137.256 10.6485C137.746 10.8255 138.168 11.0502 138.522 11.3226C138.89 11.5949 139.169 11.874 139.36 12.16C139.564 12.4323 139.666 12.6638 139.666 12.8545L138.931 13.12V11.6289C138.931 11.2749 139.046 10.9821 139.278 10.7507C139.509 10.5055 139.802 10.383 140.156 10.383ZM136.03 19.4723C136.629 19.4723 137.154 19.3225 137.603 19.0229C138.052 18.7234 138.4 18.3149 138.645 17.7974C138.903 17.28 139.033 16.7013 139.033 16.0613C139.033 15.4076 138.903 14.8221 138.645 14.3047C138.4 13.7872 138.052 13.3787 137.603 13.0791C137.154 12.7796 136.629 12.6298 136.03 12.6298C135.445 12.6298 134.927 12.7796 134.478 13.0791C134.029 13.3787 133.675 13.7872 133.416 14.3047C133.171 14.8221 133.048 15.4076 133.048 16.0613C133.048 16.7013 133.171 17.28 133.416 17.7974C133.675 18.3149 134.029 18.7234 134.478 19.0229C134.927 19.3225 135.445 19.4723 136.03 19.4723Z"
    fill="#067507" />
  <path
    d="M126.003 10.383C126.983 10.383 127.725 10.5941 128.229 11.0162C128.746 11.4383 129.1 12.0034 129.291 12.7115C129.482 13.406 129.577 14.1821 129.577 15.04V20.2689C129.577 20.6229 129.461 20.9225 129.23 21.1676C128.998 21.3991 128.706 21.5149 128.352 21.5149C127.997 21.5149 127.705 21.3991 127.473 21.1676C127.242 20.9225 127.126 20.6229 127.126 20.2689V15.04C127.126 14.5906 127.072 14.1889 126.963 13.8349C126.854 13.4672 126.656 13.1745 126.37 12.9566C126.084 12.7387 125.676 12.6298 125.145 12.6298C124.627 12.6298 124.185 12.7387 123.817 12.9566C123.449 13.1745 123.17 13.4672 122.98 13.8349C122.803 14.1889 122.714 14.5906 122.714 15.04V20.2689C122.714 20.6229 122.598 20.9225 122.367 21.1676C122.135 21.3991 121.843 21.5149 121.489 21.5149C121.135 21.5149 120.842 21.3991 120.61 21.1676C120.379 20.9225 120.263 20.6229 120.263 20.2689V7.646C120.263 7.29196 120.379 6.9992 120.61 6.76771C120.842 6.52261 121.135 6.40005 121.489 6.40005C121.843 6.40005 122.135 6.52261 122.367 6.76771C122.598 6.9992 122.714 7.29196 122.714 7.646V12.7115L122.408 12.6502C122.53 12.4187 122.7 12.1736 122.918 11.9149C123.136 11.6426 123.402 11.3907 123.715 11.1592C124.028 10.9277 124.375 10.7439 124.757 10.6077C125.138 10.4579 125.553 10.383 126.003 10.383Z"
    fill="#067507" />
  <path
    d="M115.534 10.383C116.31 10.383 116.984 10.4647 117.556 10.6281C118.142 10.7915 118.591 11.023 118.904 11.3226C119.231 11.6085 119.394 11.9558 119.394 12.3643C119.394 12.6366 119.313 12.8953 119.149 13.1404C118.986 13.3719 118.748 13.4877 118.434 13.4877C118.217 13.4877 118.033 13.4604 117.883 13.406C117.747 13.3379 117.624 13.2562 117.515 13.1609C117.406 13.0655 117.277 12.977 117.127 12.8953C116.991 12.8136 116.78 12.7523 116.494 12.7115C116.222 12.657 116.017 12.6298 115.881 12.6298C115.187 12.6298 114.594 12.7796 114.104 13.0791C113.628 13.3787 113.26 13.7872 113.001 14.3047C112.743 14.8085 112.613 15.394 112.613 16.0613C112.613 16.7149 112.743 17.3004 113.001 17.8178C113.274 18.3217 113.641 18.7234 114.104 19.0229C114.581 19.3225 115.125 19.4723 115.738 19.4723C116.079 19.4723 116.371 19.4519 116.617 19.411C116.862 19.3702 117.066 19.3089 117.229 19.2272C117.42 19.1183 117.59 19.0025 117.74 18.88C117.89 18.7574 118.114 18.6961 118.414 18.6961C118.768 18.6961 119.04 18.8119 119.231 19.0434C119.422 19.2612 119.517 19.5336 119.517 19.8604C119.517 20.2008 119.326 20.514 118.945 20.8C118.564 21.0723 118.06 21.297 117.434 21.474C116.821 21.6374 116.154 21.7191 115.432 21.7191C114.356 21.7191 113.423 21.474 112.634 20.9838C111.844 20.48 111.231 19.7991 110.795 18.9412C110.373 18.0834 110.162 17.1234 110.162 16.0613C110.162 14.9447 110.387 13.9642 110.836 13.12C111.299 12.2621 111.932 11.5949 112.736 11.1183C113.553 10.6281 114.485 10.383 115.534 10.383Z"
    fill="#067507" />
  <path
    d="M104.793 21.7191C103.636 21.7191 102.628 21.4808 101.77 21.0042C100.926 20.514 100.273 19.8536 99.8095 19.0229C99.3602 18.1923 99.1355 17.2527 99.1355 16.2042C99.1355 14.9787 99.3806 13.937 99.8708 13.0791C100.375 12.2077 101.028 11.5404 101.832 11.0775C102.635 10.6145 103.486 10.383 104.385 10.383C105.079 10.383 105.733 10.526 106.346 10.8119C106.972 11.0979 107.524 11.4928 108 11.9966C108.477 12.4868 108.851 13.0587 109.124 13.7123C109.409 14.3659 109.552 15.0604 109.552 15.7957C109.539 16.1225 109.409 16.3881 109.164 16.5923C108.919 16.7966 108.633 16.8987 108.307 16.8987H100.504L99.8912 14.8562H107.387L106.938 15.2647V14.7132C106.911 14.3183 106.768 13.9642 106.509 13.6511C106.264 13.3379 105.951 13.0928 105.57 12.9157C105.202 12.7251 104.807 12.6298 104.385 12.6298C103.976 12.6298 103.595 12.6843 103.241 12.7932C102.887 12.9021 102.581 13.086 102.322 13.3447C102.063 13.6034 101.859 13.9506 101.709 14.3864C101.559 14.8221 101.484 15.3736 101.484 16.0408C101.484 16.7761 101.634 17.4025 101.934 17.92C102.247 18.4238 102.642 18.8119 103.118 19.0842C103.609 19.3429 104.126 19.4723 104.671 19.4723C105.175 19.4723 105.576 19.4315 105.876 19.3497C106.175 19.268 106.414 19.1727 106.591 19.0638C106.781 18.9412 106.952 18.8391 107.101 18.7574C107.347 18.6349 107.578 18.5736 107.796 18.5736C108.095 18.5736 108.341 18.6757 108.531 18.88C108.735 19.0842 108.838 19.3225 108.838 19.5949C108.838 19.9625 108.647 20.2961 108.266 20.5957C107.912 20.8953 107.415 21.1608 106.775 21.3923C106.135 21.6102 105.474 21.7191 104.793 21.7191Z"
    fill="#067507" />
  <path
    d="M96.7883 10.5872C97.1424 10.5872 97.4351 10.7098 97.6666 10.9549C97.8981 11.1864 98.0139 11.4792 98.0139 11.8332V17.0213C98.0139 18.4646 97.6122 19.6085 96.8088 20.4527C96.0054 21.297 94.8479 21.7191 93.3364 21.7191C91.825 21.7191 90.6675 21.297 89.8641 20.4527C89.0743 19.6085 88.6794 18.4646 88.6794 17.0213V11.8332C88.6794 11.4792 88.7952 11.1864 89.0267 10.9549C89.2582 10.7098 89.5509 10.5872 89.905 10.5872C90.259 10.5872 90.5518 10.7098 90.7833 10.9549C91.0147 11.1864 91.1305 11.4792 91.1305 11.8332V17.0213C91.1305 17.8519 91.3143 18.4715 91.682 18.88C92.0496 19.2749 92.6011 19.4723 93.3364 19.4723C94.0854 19.4723 94.6437 19.2749 95.0113 18.88C95.379 18.4715 95.5628 17.8519 95.5628 17.0213V11.8332C95.5628 11.4792 95.6785 11.1864 95.91 10.9549C96.1415 10.7098 96.4343 10.5872 96.7883 10.5872Z"
    fill="#067507" />
  <path
    d="M81.3697 10.383C81.9416 10.383 82.4658 10.4715 82.9424 10.6485C83.419 10.8255 83.8275 11.0502 84.1679 11.3226C84.522 11.5949 84.7943 11.874 84.985 12.16C85.1892 12.4323 85.2913 12.6638 85.2913 12.8545L84.7603 13.12V11.6289C84.7603 11.2749 84.876 10.9821 85.1075 10.7507C85.339 10.5055 85.6318 10.383 85.9858 10.383C86.3398 10.383 86.6326 10.4987 86.8641 10.7302C87.0956 10.9617 87.2113 11.2613 87.2113 11.6289V20.7182C87.2113 21.9029 86.9526 22.8493 86.4352 23.5574C85.9313 24.2791 85.2641 24.7965 84.4335 25.1097C83.6028 25.4365 82.7109 25.5999 81.7577 25.5999C81.4854 25.5999 81.1314 25.5659 80.6956 25.4978C80.2599 25.4297 79.8446 25.348 79.4497 25.2527C79.0548 25.1574 78.7552 25.0689 78.551 24.9872C78.1424 24.8101 77.8565 24.5855 77.6931 24.3131C77.5433 24.0544 77.5161 23.7753 77.6114 23.4757C77.7339 23.0808 77.9314 22.8084 78.2037 22.6587C78.4761 22.5225 78.762 22.5089 79.0616 22.6178C79.1978 22.6587 79.4224 22.7404 79.7356 22.8629C80.0488 22.9855 80.3892 23.0944 80.7569 23.1897C81.1382 23.2987 81.4718 23.3531 81.7577 23.3531C82.779 23.3531 83.5348 23.1489 84.025 22.7404C84.5152 22.3319 84.7603 21.7668 84.7603 21.0451V19.268L85.0054 19.4519C85.0054 19.6289 84.9101 19.8468 84.7194 20.1055C84.5424 20.3506 84.2905 20.5957 83.9637 20.8408C83.6505 21.0859 83.276 21.297 82.8403 21.474C82.4045 21.6374 81.9416 21.7191 81.4514 21.7191C80.4846 21.7191 79.6131 21.4808 78.8369 21.0042C78.0607 20.514 77.448 19.8468 76.9986 19.0025C76.5493 18.1446 76.3246 17.1642 76.3246 16.0613C76.3246 14.9447 76.5493 13.9642 76.9986 13.12C77.448 12.2621 78.0539 11.5949 78.8165 11.1183C79.579 10.6281 80.4301 10.383 81.3697 10.383ZM81.7577 12.6298C81.145 12.6298 80.6071 12.7796 80.1441 13.0791C79.6812 13.3787 79.3203 13.7872 79.0616 14.3047C78.8029 14.8221 78.6735 15.4076 78.6735 16.0613C78.6735 16.7013 78.8029 17.28 79.0616 17.7974C79.3203 18.3149 79.6812 18.7234 80.1441 19.0229C80.6071 19.3225 81.145 19.4723 81.7577 19.4723C82.3841 19.4723 82.9288 19.3225 83.3918 19.0229C83.8548 18.7234 84.2156 18.3149 84.4743 17.7974C84.733 17.28 84.8624 16.7013 84.8624 16.0613C84.8624 15.4076 84.733 14.8221 84.4743 14.3047C84.2156 13.7872 83.8548 13.3787 83.3918 13.0791C82.9288 12.7796 82.3841 12.6298 81.7577 12.6298Z"
    fill="#067507" />
  <path
    d="M71.5306 10.383C72.5382 10.383 73.3008 10.5941 73.8182 11.0162C74.3493 11.4383 74.7101 12.0034 74.9008 12.7115C75.105 13.406 75.2071 14.1821 75.2071 15.04V20.2689C75.2071 20.6229 75.0914 20.9225 74.8599 21.1676C74.6284 21.3991 74.3357 21.5148 73.9816 21.5148C73.6276 21.5148 73.3348 21.3991 73.1033 21.1676C72.8718 20.9225 72.7561 20.6229 72.7561 20.2689V15.04C72.7561 14.5906 72.6948 14.1889 72.5723 13.8349C72.4633 13.4672 72.2591 13.1745 71.9595 12.9566C71.6599 12.7387 71.231 12.6298 70.6727 12.6298C70.128 12.6298 69.6651 12.7387 69.2838 12.9566C68.9161 13.1745 68.6302 13.4672 68.4259 13.8349C68.2353 14.1889 68.14 14.5906 68.14 15.04V20.2689C68.14 20.6229 68.0242 20.9225 67.7927 21.1676C67.5612 21.3991 67.2685 21.5148 66.9144 21.5148C66.5604 21.5148 66.2676 21.3991 66.0361 21.1676C65.8046 20.9225 65.6889 20.6229 65.6889 20.2689V11.8332C65.6889 11.4792 65.8046 11.1864 66.0361 10.9549C66.2676 10.7098 66.5604 10.5872 66.9144 10.5872C67.2685 10.5872 67.5612 10.7098 67.7927 10.9549C68.0242 11.1864 68.14 11.4792 68.14 11.8332V12.7115L67.8336 12.6502C67.9561 12.4187 68.1331 12.1736 68.3646 11.9149C68.5961 11.6426 68.8685 11.3906 69.1816 11.1592C69.4948 10.9277 69.8489 10.7438 70.2438 10.6077C70.6387 10.4579 71.0676 10.383 71.5306 10.383Z"
    fill="#067507" />
  <path
    d="M59.8096 21.7191C58.6521 21.7191 57.6445 21.4808 56.7866 21.0042C55.9423 20.514 55.2887 19.8536 54.8258 19.0229C54.3764 18.1923 54.1517 17.2527 54.1517 16.2042C54.1517 14.9787 54.3968 13.937 54.887 13.0791C55.3909 12.2077 56.0445 11.5404 56.8479 11.0775C57.6513 10.6145 58.5023 10.383 59.401 10.383C60.0955 10.383 60.7491 10.526 61.3619 10.8119C61.9883 11.0979 62.5398 11.4928 63.0163 11.9966C63.4929 12.4868 63.8674 13.0587 64.1397 13.7123C64.4257 14.3659 64.5687 15.0604 64.5687 15.7957C64.5551 16.1225 64.4257 16.3881 64.1806 16.5923C63.9355 16.7966 63.6495 16.8987 63.3227 16.8987H55.5202L54.9075 14.8562H62.4036L61.9542 15.2647V14.7132C61.927 14.3183 61.784 13.9642 61.5253 13.6511C61.2802 13.3379 60.967 13.0928 60.5857 12.9157C60.2181 12.7251 59.8232 12.6298 59.401 12.6298C58.9925 12.6298 58.6113 12.6843 58.2572 12.7932C57.9032 12.9021 57.5968 13.086 57.3381 13.3447C57.0794 13.6034 56.8751 13.9506 56.7253 14.3864C56.5755 14.8221 56.5006 15.3736 56.5006 16.0408C56.5006 16.7761 56.6504 17.4025 56.95 17.92C57.2632 18.4238 57.6581 18.8119 58.1347 19.0842C58.6249 19.3429 59.1423 19.4723 59.687 19.4723C60.1908 19.4723 60.5925 19.4315 60.8921 19.3497C61.1917 19.268 61.43 19.1727 61.607 19.0638C61.7976 18.9412 61.9678 18.8391 62.1176 18.7574C62.3627 18.6349 62.5942 18.5736 62.8121 18.5736C63.1117 18.5736 63.3568 18.6757 63.5474 18.88C63.7517 19.0842 63.8538 19.3225 63.8538 19.5949C63.8538 19.9625 63.6631 20.2961 63.2819 20.5957C62.9278 20.8953 62.4308 21.1608 61.7908 21.3923C61.1508 21.6102 60.4904 21.7191 59.8096 21.7191Z"
    fill="#067507" />
  <path
    d="M51.8043 6.40005C52.1584 6.40005 52.4511 6.5158 52.6826 6.74729C52.9141 6.97877 53.0298 7.27835 53.0298 7.646V20.2689C53.0298 20.6229 52.9141 20.9225 52.6826 21.1676C52.4511 21.3991 52.1584 21.5149 51.8043 21.5149C51.4503 21.5149 51.1575 21.3991 50.926 21.1676C50.6945 20.9225 50.5788 20.6229 50.5788 20.2689V19.2681L51.0281 19.4519C51.0281 19.6289 50.9328 19.8468 50.7422 20.1055C50.5516 20.3506 50.2928 20.5957 49.966 20.8408C49.6392 21.0859 49.2511 21.297 48.8018 21.474C48.366 21.6374 47.8894 21.7191 47.372 21.7191C46.4324 21.7191 45.5814 21.4808 44.8188 21.0042C44.0563 20.514 43.4503 19.8468 43.001 19.0025C42.5652 18.1447 42.3474 17.1642 42.3474 16.0613C42.3474 14.9447 42.5652 13.9643 43.001 13.12C43.4503 12.2621 44.0495 11.5949 44.7984 11.1183C45.5473 10.6281 46.378 10.383 47.2903 10.383C47.8758 10.383 48.4137 10.4715 48.9039 10.6485C49.3941 10.8256 49.8162 11.0502 50.1703 11.3226C50.5379 11.5949 50.8171 11.8741 51.0077 12.16C51.212 12.4324 51.3141 12.6638 51.3141 12.8545L50.5788 13.12V7.646C50.5788 7.29196 50.6945 6.9992 50.926 6.76771C51.1575 6.52261 51.4503 6.40005 51.8043 6.40005ZM47.6784 19.4723C48.2775 19.4723 48.8018 19.3225 49.2511 19.023C49.7005 18.7234 50.0477 18.3149 50.2928 17.7974C50.5516 17.28 50.6809 16.7013 50.6809 16.0613C50.6809 15.4077 50.5516 14.8221 50.2928 14.3047C50.0477 13.7872 49.7005 13.3787 49.2511 13.0792C48.8018 12.7796 48.2775 12.6298 47.6784 12.6298C47.0929 12.6298 46.5754 12.7796 46.1261 13.0792C45.6767 13.3787 45.3227 13.7872 45.0639 14.3047C44.8188 14.8221 44.6963 15.4077 44.6963 16.0613C44.6963 16.7013 44.8188 17.28 45.0639 17.7974C45.3227 18.3149 45.6767 18.7234 46.1261 19.023C46.5754 19.3225 47.0929 19.4723 47.6784 19.4723Z"
    fill="#067507" />
</svg>
  