<svg width="24" height="25" viewBox="0 0 24 25" fill="none" xmlns="http://www.w3.org/2000/svg">
  <path
    d="M12 19.9175C13.1 19.9175 14.0417 19.5258 14.825 18.7425C15.6083 17.9591 16 17.0175 16 15.9175V11.9175C16 10.8175 15.6083 9.87581 14.825 9.09248C14.0417 8.30915 13.1 7.91748 12 7.91748C10.9 7.91748 9.95833 8.30915 9.175 9.09248C8.39167 9.87581 8 10.8175 8 11.9175V15.9175C8 17.0175 8.39167 17.9591 9.175 18.7425C9.95833 19.5258 10.9 19.9175 12 19.9175ZM10 16.9175H14V14.9175H10V16.9175ZM10 12.9175H14V10.9175H10V12.9175ZM12 21.9175C10.9167 21.9175 9.9125 21.6508 8.9875 21.1175C8.0625 20.5841 7.33333 19.8508 6.8 18.9175H4V16.9175H6.1C6.05 16.5841 6.02083 16.2508 6.0125 15.9175C6.00417 15.5841 6 15.2508 6 14.9175H4V12.9175H6C6 12.5841 6.00417 12.2508 6.0125 11.9175C6.02083 11.5841 6.05 11.2508 6.1 10.9175H4V8.91748H6.8C7.03333 8.53415 7.29583 8.17581 7.5875 7.84248C7.87917 7.50915 8.21667 7.21748 8.6 6.96748L7 5.31748L8.4 3.91748L10.55 6.06748C11.0167 5.91748 11.4917 5.84248 11.975 5.84248C12.4583 5.84248 12.9333 5.91748 13.4 6.06748L15.6 3.91748L17 5.31748L15.35 6.96748C15.7333 7.21748 16.0792 7.50498 16.3875 7.82998C16.6958 8.15498 16.9667 8.51748 17.2 8.91748H20V10.9175H17.9C17.95 11.2508 17.9792 11.5841 17.9875 11.9175C17.9958 12.2508 18 12.5841 18 12.9175H20V14.9175H18C18 15.2508 17.9958 15.5841 17.9875 15.9175C17.9792 16.2508 17.95 16.5841 17.9 16.9175H20V18.9175H17.2C16.6667 19.8508 15.9375 20.5841 15.0125 21.1175C14.0875 21.6508 13.0833 21.9175 12 21.9175Z"
    fill="#57534E" />
</svg>
  