<svg width="24" height="25" viewBox="0 0 24 25" fill="none" xmlns="http://www.w3.org/2000/svg">
  <path
    d="M3 21.9175V7.91748H9V5.91748L12 2.91748L15 5.91748V11.9175H21V21.9175H3ZM5 19.9175H7V17.9175H5V19.9175ZM5 15.9175H7V13.9175H5V15.9175ZM5 11.9175H7V9.91748H5V11.9175ZM11 19.9175H13V17.9175H11V19.9175ZM11 15.9175H13V13.9175H11V15.9175ZM11 11.9175H13V9.91748H11V11.9175ZM11 7.91748H13V5.91748H11V7.91748ZM17 19.9175H19V17.9175H17V19.9175ZM17 15.9175H19V13.9175H17V15.9175Z"
    fill="#57534E" />
</svg>
  