<svg width="16" height="16" viewBox="0 0 16 16" fill="none" xmlns="http://www.w3.org/2000/svg">
<path d="M3.99967 9.3335H11.9997V8.00016H3.99967V9.3335ZM3.99967 7.3335H11.9997V6.00016H3.99967V7.3335ZM3.99967 5.3335H11.9997V4.00016H3.99967V5.3335ZM14.6663 14.6668L11.9997 12.0002H2.66634C2.29967 12.0002 1.98579 11.8696 1.72467 11.6085C1.46356 11.3474 1.33301 11.0335 1.33301 10.6668V2.66683C1.33301 2.30016 1.46356 1.98627 1.72467 1.72516C1.98579 1.46405 2.29967 1.3335 2.66634 1.3335H13.333C13.6997 1.3335 14.0136 1.46405 14.2747 1.72516C14.5358 1.98627 14.6663 2.30016 14.6663 2.66683V14.6668ZM2.66634 10.6668H12.5663L13.333 11.4168V2.66683H2.66634V10.6668Z" fill="#79716B"/>
</svg>
