<svg width="24" height="25" viewBox="0 0 24 25" fill="none" xmlns="http://www.w3.org/2000/svg">
  <path
    d="M12 21.9175C9.48333 21.9175 7.35417 21.53 5.6125 20.755C3.87083 19.98 3 19.0341 3 17.9175V7.91748C3 6.81748 3.87917 5.87581 5.6375 5.09248C7.39583 4.30915 9.51667 3.91748 12 3.91748C14.4833 3.91748 16.6042 4.30915 18.3625 5.09248C20.1208 5.87581 21 6.81748 21 7.91748V17.9175C21 19.0341 20.1292 19.98 18.3875 20.755C16.6458 21.53 14.5167 21.9175 12 21.9175ZM12 9.94248C13.4833 9.94248 14.975 9.72998 16.475 9.30498C17.975 8.87998 18.8167 8.42581 19 7.94248C18.8167 7.45915 17.9792 7.00081 16.4875 6.56748C14.9958 6.13415 13.5 5.91748 12 5.91748C10.4833 5.91748 8.99583 6.12998 7.5375 6.55498C6.07917 6.97998 5.23333 7.44248 5 7.94248C5.23333 8.44248 6.07917 8.90081 7.5375 9.31748C8.99583 9.73415 10.4833 9.94248 12 9.94248ZM12 14.9175C12.7 14.9175 13.375 14.8841 14.025 14.8175C14.675 14.7508 15.2958 14.655 15.8875 14.53C16.4792 14.405 17.0375 14.2508 17.5625 14.0675C18.0875 13.8841 18.5667 13.6758 19 13.4425V10.4425C18.5667 10.6758 18.0875 10.8841 17.5625 11.0675C17.0375 11.2508 16.4792 11.405 15.8875 11.53C15.2958 11.655 14.675 11.7508 14.025 11.8175C13.375 11.8841 12.7 11.9175 12 11.9175C11.3 11.9175 10.6167 11.8841 9.95 11.8175C9.28333 11.7508 8.65417 11.655 8.0625 11.53C7.47083 11.405 6.91667 11.2508 6.4 11.0675C5.88333 10.8841 5.41667 10.6758 5 10.4425V13.4425C5.41667 13.6758 5.88333 13.8841 6.4 14.0675C6.91667 14.2508 7.47083 14.405 8.0625 14.53C8.65417 14.655 9.28333 14.7508 9.95 14.8175C10.6167 14.8841 11.3 14.9175 12 14.9175ZM12 19.9175C12.7667 19.9175 13.5458 19.8591 14.3375 19.7425C15.1292 19.6258 15.8583 19.4716 16.525 19.28C17.1917 19.0883 17.75 18.8716 18.2 18.63C18.65 18.3883 18.9167 18.1425 19 17.8925V15.4425C18.5667 15.6758 18.0875 15.8841 17.5625 16.0675C17.0375 16.2508 16.4792 16.405 15.8875 16.53C15.2958 16.655 14.675 16.7508 14.025 16.8175C13.375 16.8841 12.7 16.9175 12 16.9175C11.3 16.9175 10.6167 16.8841 9.95 16.8175C9.28333 16.7508 8.65417 16.655 8.0625 16.53C7.47083 16.405 6.91667 16.2508 6.4 16.0675C5.88333 15.8841 5.41667 15.6758 5 15.4425V17.9175C5.08333 18.1675 5.34583 18.4091 5.7875 18.6425C6.22917 18.8758 6.78333 19.0883 7.45 19.28C8.11667 19.4716 8.85 19.6258 9.65 19.7425C10.45 19.8591 11.2333 19.9175 12 19.9175Z"
    fill="#57534E" />
</svg>
  