<svg width="24" height="25" viewBox="0 0 24 25" fill="none" xmlns="http://www.w3.org/2000/svg">
<path d="M4 21.9175C3.45 21.9175 2.97917 21.7216 2.5875 21.33C2.19583 20.9383 2 20.4675 2 19.9175V5.91748C2 5.36748 2.19583 4.89665 2.5875 4.50498C2.97917 4.11331 3.45 3.91748 4 3.91748H20C20.55 3.91748 21.0208 4.11331 21.4125 4.50498C21.8042 4.89665 22 5.36748 22 5.91748V19.9175C22 20.4675 21.8042 20.9383 21.4125 21.33C21.0208 21.7216 20.55 21.9175 20 21.9175H4ZM4 19.9175H20V5.91748H4V19.9175ZM5 17.9175H10V15.9175H5V17.9175ZM14.55 15.9175L19.5 10.9675L18.075 9.54248L14.55 13.0925L13.125 11.6675L11.725 13.0925L14.55 15.9175ZM5 13.9175H10V11.9175H5V13.9175ZM5 9.91748H10V7.91748H5V9.91748Z" fill="#57534E"/>
</svg>
