<svg width="36" height="36" viewBox="0 0 36 36" fill="none" xmlns="http://www.w3.org/2000/svg">
<path d="M6 31.5V17.4375L3.3 19.5L1.5 17.1L6 13.65L9 11.3625L18 4.5L34.5 17.1L32.7 19.4625L30 17.4375V31.5H6ZM9 28.5H16.5H19.5H27V15.15L18 8.2875L9 15.15V28.5Z" fill="black"/>
<path d="M19.0688 25.8188C18.7812 26.1063 18.425 26.25 18 26.25C17.575 26.25 17.2188 26.1063 16.9313 25.8188C16.6438 25.5312 16.5 25.175 16.5 24.75C16.5 24.325 16.6438 23.9688 16.9313 23.6813C17.2188 23.3938 17.575 23.25 18 23.25C18.425 23.25 18.7812 23.3938 19.0688 23.6813C19.3563 23.9688 19.5 24.325 19.5 24.75C19.5 25.175 19.3563 25.5312 19.0688 25.8188Z" fill="black"/>
<path d="M19.5 20.25H16.5V12.75H19.5V20.25Z" fill="black"/>
</svg>
