<svg width="24" height="25" viewBox="0 0 24 25" fill="none" xmlns="http://www.w3.org/2000/svg">
  <path
    d="M9.25001 22.9175L8.85001 19.7175C8.63335 19.6341 8.42918 19.5341 8.23751 19.4175C8.04585 19.3008 7.85835 19.1758 7.67501 19.0425L4.70001 20.2925L1.95001 15.5425L4.52501 13.5925C4.50835 13.4758 4.50001 13.3633 4.50001 13.255V12.58C4.50001 12.4716 4.50835 12.3591 4.52501 12.2425L1.95001 10.2925L4.70001 5.54248L7.67501 6.79248C7.85835 6.65915 8.05001 6.53415 8.25001 6.41748C8.45001 6.30081 8.65001 6.20081 8.85001 6.11748L9.25001 2.91748H14.75L15.15 6.11748C15.3667 6.20081 15.5708 6.30081 15.7625 6.41748C15.9542 6.53415 16.1417 6.65915 16.325 6.79248L19.3 5.54248L22.05 10.2925L19.475 12.2425C19.4917 12.3591 19.5 12.4716 19.5 12.58V13.255C19.5 13.3633 19.4833 13.4758 19.45 13.5925L22.025 15.5425L19.275 20.2925L16.325 19.0425C16.1417 19.1758 15.95 19.3008 15.75 19.4175C15.55 19.5341 15.35 19.6341 15.15 19.7175L14.75 22.9175H9.25001ZM11 20.9175H12.975L13.325 18.2675C13.8417 18.1341 14.3208 17.9383 14.7625 17.68C15.2042 17.4216 15.6083 17.1091 15.975 16.7425L18.45 17.7675L19.425 16.0675L17.275 14.4425C17.3583 14.2091 17.4167 13.9633 17.45 13.705C17.4833 13.4466 17.5 13.1841 17.5 12.9175C17.5 12.6508 17.4833 12.3883 17.45 12.13C17.4167 11.8716 17.3583 11.6258 17.275 11.3925L19.425 9.76748L18.45 8.06748L15.975 9.11748C15.6083 8.73415 15.2042 8.41331 14.7625 8.15498C14.3208 7.89665 13.8417 7.70081 13.325 7.56748L13 4.91748H11.025L10.675 7.56748C10.1583 7.70081 9.67918 7.89665 9.23751 8.15498C8.79585 8.41331 8.39168 8.72581 8.02501 9.09248L5.55001 8.06748L4.57501 9.76748L6.72501 11.3675C6.64168 11.6175 6.58335 11.8675 6.55001 12.1175C6.51668 12.3675 6.50001 12.6341 6.50001 12.9175C6.50001 13.1841 6.51668 13.4425 6.55001 13.6925C6.58335 13.9425 6.64168 14.1925 6.72501 14.4425L4.57501 16.0675L5.55001 17.7675L8.02501 16.7175C8.39168 17.1008 8.79585 17.4216 9.23751 17.68C9.67918 17.9383 10.1583 18.1341 10.675 18.2675L11 20.9175ZM12.05 16.4175C13.0167 16.4175 13.8417 16.0758 14.525 15.3925C15.2083 14.7091 15.55 13.8841 15.55 12.9175C15.55 11.9508 15.2083 11.1258 14.525 10.4425C13.8417 9.75915 13.0167 9.41748 12.05 9.41748C11.0667 9.41748 10.2375 9.75915 9.56251 10.4425C8.88751 11.1258 8.55001 11.9508 8.55001 12.9175C8.55001 13.8841 8.88751 14.7091 9.56251 15.3925C10.2375 16.0758 11.0667 16.4175 12.05 16.4175Z"
    fill="#57534E" />
</svg>
  