<svg width="24" height="25" viewBox="0 0 24 25" fill="none" xmlns="http://www.w3.org/2000/svg">
  <path
    d="M1 20.9175V16.9175C1 16.3508 1.19583 15.8758 1.5875 15.4925C1.97917 15.1091 2.45 14.9175 3 14.9175H6.275C6.60833 14.9175 6.925 15.0008 7.225 15.1675C7.525 15.3341 7.76667 15.5591 7.95 15.8425C8.43333 16.4925 9.02917 17.0008 9.7375 17.3675C10.4458 17.7341 11.2 17.9175 12 17.9175C12.8167 17.9175 13.5792 17.7341 14.2875 17.3675C14.9958 17.0008 15.5833 16.4925 16.05 15.8425C16.2667 15.5591 16.5208 15.3341 16.8125 15.1675C17.1042 15.0008 17.4083 14.9175 17.725 14.9175H21C21.5667 14.9175 22.0417 15.1091 22.425 15.4925C22.8083 15.8758 23 16.3508 23 16.9175V20.9175H16V18.6425C15.4167 19.0591 14.7875 19.3758 14.1125 19.5925C13.4375 19.8091 12.7333 19.9175 12 19.9175C11.2833 19.9175 10.5833 19.805 9.9 19.58C9.21667 19.355 8.58333 19.0341 8 18.6175V20.9175H1ZM12 16.9175C11.3667 16.9175 10.7667 16.7716 10.2 16.48C9.63333 16.1883 9.15833 15.7841 8.775 15.2675C8.49167 14.8508 8.1375 14.5216 7.7125 14.28C7.2875 14.0383 6.825 13.9175 6.325 13.9175C6.69167 13.3008 7.46667 12.8133 8.65 12.455C9.83333 12.0966 10.95 11.9175 12 11.9175C13.05 11.9175 14.1667 12.0966 15.35 12.455C16.5333 12.8133 17.3083 13.3008 17.675 13.9175C17.1917 13.9175 16.7333 14.0383 16.3 14.28C15.8667 14.5216 15.5083 14.8508 15.225 15.2675C14.8583 15.8008 14.3917 16.2091 13.825 16.4925C13.2583 16.7758 12.65 16.9175 12 16.9175ZM4 13.9175C3.16667 13.9175 2.45833 13.6258 1.875 13.0425C1.29167 12.4591 1 11.7508 1 10.9175C1 10.0675 1.29167 9.35498 1.875 8.77998C2.45833 8.20498 3.16667 7.91748 4 7.91748C4.85 7.91748 5.5625 8.20498 6.1375 8.77998C6.7125 9.35498 7 10.0675 7 10.9175C7 11.7508 6.7125 12.4591 6.1375 13.0425C5.5625 13.6258 4.85 13.9175 4 13.9175ZM20 13.9175C19.1667 13.9175 18.4583 13.6258 17.875 13.0425C17.2917 12.4591 17 11.7508 17 10.9175C17 10.0675 17.2917 9.35498 17.875 8.77998C18.4583 8.20498 19.1667 7.91748 20 7.91748C20.85 7.91748 21.5625 8.20498 22.1375 8.77998C22.7125 9.35498 23 10.0675 23 10.9175C23 11.7508 22.7125 12.4591 22.1375 13.0425C21.5625 13.6258 20.85 13.9175 20 13.9175ZM12 10.9175C11.1667 10.9175 10.4583 10.6258 9.875 10.0425C9.29167 9.45915 9 8.75081 9 7.91748C9 7.06748 9.29167 6.35498 9.875 5.77998C10.4583 5.20498 11.1667 4.91748 12 4.91748C12.85 4.91748 13.5625 5.20498 14.1375 5.77998C14.7125 6.35498 15 7.06748 15 7.91748C15 8.75081 14.7125 9.45915 14.1375 10.0425C13.5625 10.6258 12.85 10.9175 12 10.9175Z"
    fill="#57534E" />
</svg>
  