<svg width="16" height="16" viewBox="0 0 16 16" fill="none" xmlns="http://www.w3.org/2000/svg">
<path d="M11.9997 13.9998H4.66634V5.33317L9.33301 0.666504L10.1663 1.49984C10.2441 1.57762 10.308 1.68317 10.358 1.8165C10.408 1.94984 10.433 2.07762 10.433 2.19984V2.43317L9.69967 5.33317H13.9997C14.3552 5.33317 14.6663 5.4665 14.933 5.73317C15.1997 5.99984 15.333 6.31095 15.333 6.6665V7.99984C15.333 8.07762 15.3219 8.16095 15.2997 8.24984C15.2775 8.33873 15.2552 8.42206 15.233 8.49984L13.233 13.1998C13.133 13.4221 12.9663 13.6109 12.733 13.7665C12.4997 13.9221 12.2552 13.9998 11.9997 13.9998ZM5.99967 12.6665H11.9997L13.9997 7.99984V6.6665H7.99967L8.89967 2.99984L5.99967 5.89984V12.6665ZM4.66634 5.33317V6.6665H2.66634V12.6665H4.66634V13.9998H1.33301V5.33317H4.66634Z" fill="#79716B"/>
</svg>
